<?xml version="1.0" encoding="UTF-8"?>
<svg xmlns="http://www.w3.org/2000/svg" xmlns:xlink="http://www.w3.org/1999/xlink" width="20px" height="20px" viewBox="0 0 20 20" version="1.1">
<g id="surface1">
<path style=" stroke:none;fill-rule:nonzero;fill:rgb(11.372549%,60.784314%,94.117647%);fill-opacity:1;" d="M 18.542969 10 C 18.542969 8.808594 17.808594 7.773438 16.714844 7.214844 C 17.101562 6.058594 16.882812 4.800781 16.042969 3.957031 C 15.199219 3.117188 13.941406 2.898438 12.785156 3.285156 C 12.234375 2.191406 11.191406 1.457031 10 1.457031 C 8.808594 1.457031 7.773438 2.191406 7.226562 3.285156 C 6.058594 2.898438 4.800781 3.117188 3.957031 3.957031 C 3.117188 4.800781 2.910156 6.058594 3.292969 7.214844 C 2.199219 7.773438 1.457031 8.808594 1.457031 10 C 1.457031 11.191406 2.199219 12.226562 3.292969 12.785156 C 2.910156 13.941406 3.117188 15.199219 3.957031 16.042969 C 4.800781 16.882812 6.058594 17.089844 7.214844 16.714844 C 7.773438 17.808594 8.808594 18.542969 10 18.542969 C 11.191406 18.542969 12.234375 17.808594 12.785156 16.714844 C 13.941406 17.089844 15.199219 16.882812 16.042969 16.042969 C 16.882812 15.199219 17.101562 13.941406 16.714844 12.785156 C 17.808594 12.226562 18.542969 11.191406 18.542969 10 Z M 8.785156 13.5 L 5.667969 10.382812 L 6.839844 9.199219 L 8.726562 11.082031 L 12.726562 6.726562 L 13.949219 7.859375 Z M 8.785156 13.5 "/>
</g>
</svg>
